<?xml version="1.0" encoding="UTF-8"?>
<svg version="1.1" xmlns="http://www.w3.org/2000/svg" width="64" height="64">
<path d="M0 0 C1.10794922 -0.01260864 2.21589844 -0.02521729 3.35742188 -0.03820801 C4.54916016 -0.03011108 5.74089844 -0.02201416 6.96875 -0.01367188 C8.19658203 -0.01749878 9.42441406 -0.02132568 10.68945312 -0.02526855 C13.28516459 -0.02799029 15.88090336 -0.02061099 18.4765625 -0.00390625 C22.45374599 0.01749738 26.42912282 -0.0037015 30.40625 -0.02929688 C32.92708733 -0.02665365 35.44792353 -0.02152878 37.96875 -0.01367188 C39.16048828 -0.0217688 40.35222656 -0.02986572 41.58007812 -0.03820801 C43.24200195 -0.01929504 43.24200195 -0.01929504 44.9375 0 C45.91138672 0.00318237 46.88527344 0.00636475 47.88867188 0.00964355 C51.23982419 0.66937788 52.42703622 1.81718966 54.46875 4.51757812 C54.94976807 6.51715088 54.94976807 6.51715088 54.92285156 8.64355469 C54.92254944 9.44408264 54.92224731 10.2446106 54.92193604 11.06939697 C54.90129089 11.923703 54.88064575 12.77800903 54.859375 13.65820312 C54.85371521 14.54038513 54.84805542 15.42256714 54.84222412 16.33148193 C54.81986591 19.14407026 54.76967132 21.95537607 54.71875 24.76757812 C54.69868425 26.67641387 54.68043361 28.58526962 54.6640625 30.49414062 C54.620003 35.16911258 54.55097984 39.84312804 54.46875 44.51757812 C53.14875 44.51757812 51.82875 44.51757812 50.46875 44.51757812 C50.46875 35.93757813 50.46875 27.35757812 50.46875 18.51757812 C31.98875 18.51757812 13.50875 18.51757812 -5.53125 18.51757812 C-5.386875 25.09695312 -5.2425 31.67632813 -5.09375 38.45507812 C-5.05064697 40.53425537 -5.00754395 42.61343262 -4.96313477 44.75561523 C-4.92502815 46.39372648 -4.88656042 48.03182938 -4.84765625 49.66992188 C-4.83118042 50.52847778 -4.81470459 51.38703369 -4.79772949 52.27160645 C-5.08341432 56.21280122 -5.08341432 56.21280122 -3.53125 59.51757812 C-0.72148482 59.67774979 2.06648596 59.77708347 4.87890625 59.83398438 C6.14195839 59.86515602 6.14195839 59.86515602 7.43052673 59.8969574 C10.13068179 59.96254625 12.83093717 60.02138088 15.53125 60.08007812 C17.35743241 60.12325449 19.18360454 60.16686848 21.00976562 60.2109375 C25.49598992 60.31823707 29.9823155 60.41947779 34.46875 60.51757812 C34.46875 61.83757813 34.46875 63.15757813 34.46875 64.51757812 C28.8454298 64.61649986 23.22261667 64.68907155 17.59863281 64.73730469 C15.68578265 64.75741264 13.77299389 64.78470319 11.86035156 64.81933594 C9.10987189 64.86789062 6.36020523 64.8905547 3.609375 64.90820312 C2.75506897 64.92884827 1.90076294 64.94949341 1.02056885 64.97076416 C-0.18022308 64.97121735 -0.18022308 64.97121735 -1.40527344 64.97167969 C-2.45784332 64.98500336 -2.45784332 64.98500336 -3.53167725 64.99859619 C-6.51194486 64.28166175 -7.68766633 62.92515014 -9.53125 60.51757812 C-10.03918457 57.9375 -10.03918457 57.9375 -10.04882812 54.98632812 C-10.06143677 53.87837891 -10.07404541 52.77042969 -10.08703613 51.62890625 C-10.07893921 50.43716797 -10.07084229 49.24542969 -10.0625 48.01757812 C-10.0663269 46.78974609 -10.07015381 45.56191406 -10.07409668 44.296875 C-10.07681842 41.70116353 -10.06943911 39.10542476 -10.05273438 36.50976562 C-10.03133075 32.53258213 -10.05252963 28.55720531 -10.078125 24.58007812 C-10.07548177 22.0592408 -10.07035691 19.53840459 -10.0625 17.01757812 C-10.07059692 15.82583984 -10.07869385 14.63410156 -10.08703613 13.40625 C-10.07442749 12.29830078 -10.06181885 11.19035156 -10.04882812 10.04882812 C-10.04564575 9.07494141 -10.04246338 8.10105469 -10.03918457 7.09765625 C-8.91711969 1.39807362 -5.396739 0.01763494 0 0 Z M-5.53125 6.51757812 C-5.53125 9.15757813 -5.53125 11.79757813 -5.53125 14.51757812 C12.94875 14.51757812 31.42875 14.51757812 50.46875 14.51757812 C50.46875 11.87757812 50.46875 9.23757812 50.46875 6.51757812 C47.92601278 3.97484091 47.02435561 4.26492933 43.5 4.25878906 C42.46552734 4.25248474 41.43105469 4.24618042 40.36523438 4.23968506 C39.24439453 4.24373352 38.12355469 4.24778198 36.96875 4.25195312 C35.82212891 4.25003967 34.67550781 4.24812622 33.49414062 4.24615479 C31.06640402 4.24479191 28.63866016 4.24849545 26.2109375 4.25683594 C22.48420927 4.26753375 18.75796314 4.25694381 15.03125 4.24414062 C12.67708226 4.2454622 10.32291483 4.24802455 7.96875 4.25195312 C6.28749023 4.24588043 6.28749023 4.24588043 4.57226562 4.23968506 C3.53779297 4.24598938 2.50332031 4.2522937 1.4375 4.25878906 C0.06754883 4.26117584 0.06754883 4.26117584 -1.33007812 4.26361084 C-3.73841627 4.31047795 -3.73841627 4.31047795 -5.53125 6.51757812 Z " fill="#000000" transform="translate(9.53125,-0.517578125)"/>
<path d="M0 0 C4.62 0 9.24 0 14 0 C13.67 1.32 13.34 2.64 13 4 C11.68 4.33 10.36 4.66 9 5 C9.86625 5.81984375 10.7325 6.6396875 11.625 7.484375 C12.75052066 8.57237831 13.87549231 9.66094976 15 10.75 C15.85851562 11.55824219 15.85851562 11.55824219 16.734375 12.3828125 C18.23374492 13.84648314 19.62427295 15.41955166 21 17 C21 18.32 21 19.64 21 21 C15.95193086 20.64008282 13.47760134 17.95601959 10.1875 14.4375 C9.68541016 13.91736328 9.18332031 13.39722656 8.66601562 12.86132812 C7.43470873 11.5831143 6.2160593 10.29272853 5 9 C4.34 10.65 3.68 12.3 3 14 C2.01 14 1.02 14 0 14 C0 9.38 0 4.76 0 0 Z " fill="#000000" transform="translate(38,38)"/>
<path d="M0 0 C1.98 0 3.96 0 6 0 C6 1.32 6 2.64 6 4 C4.02 4 2.04 4 0 4 C0 2.68 0 1.36 0 0 Z " fill="#000000" transform="translate(15,7)"/>
<path d="M0 0 C1.98 0 3.96 0 6 0 C6 1.32 6 2.64 6 4 C4.02 4 2.04 4 0 4 C0 2.68 0 1.36 0 0 Z " fill="#000000" transform="translate(7,7)"/>
</svg>
